<svg width="60" height="61" viewBox="0 0 60 61" fill="none" xmlns="http://www.w3.org/2000/svg">
<g clip-path="url(#clip0_52_639)">
<path d="M11.25 13.9648H1.6875C0.75 13.9648 0 14.7148 0 15.6523V32.7148C0 33.8398 0.75 34.5898 1.6875 34.5898H11.25C14.4375 34.5898 16.875 37.0273 16.875 40.2148V19.5898C16.875 16.4023 14.4375 13.9648 11.25 13.9648Z" fill="#0171DD"/>
<path d="M33.9375 13.9648H24.375C21.1875 13.9648 18.75 16.4023 18.75 19.5898V40.2148C18.75 37.0273 21.1875 34.5898 24.375 34.5898H33.9375C34.875 34.5898 35.625 33.8398 35.625 32.9023V15.6523C35.625 14.7148 34.875 13.9648 33.9375 13.9648Z" fill="#0171DD"/>
<path d="M59.8125 33.8398L54.375 22.9648C54.1875 12.8398 45.75 4.58984 35.625 4.58984C30.375 4.58984 25.5 6.83984 21.9375 10.5898C22.6875 10.4023 23.4375 10.2148 24.375 10.2148H33.9375C36.9375 10.2148 39.375 12.6523 39.375 15.6523V32.7148C39.375 35.7148 36.9375 38.1523 33.9375 38.1523H24.375C23.25 38.1523 22.5 38.9023 22.5 40.0273V51.2773C22.5 52.2148 23.0625 52.9648 24 53.1523L42.75 56.9023C42.9375 56.9023 42.9375 56.9023 43.125 56.9023C43.5 56.9023 44.0625 56.7148 44.25 56.5273C44.625 56.1523 45 55.5898 45 55.0273V47.5273H48.75C51.9375 47.5273 54.375 45.0898 54.375 41.9023V36.2773H58.125C58.6875 36.2773 59.4375 35.9023 59.8125 35.3398C60.1875 34.7773 60 34.4023 59.8125 33.8398Z" fill="#0171DD"/>
</g>
<defs>
<clipPath id="clip0_52_639">
<rect width="60" height="60" fill="white" transform="translate(0 0.839844)"/>
</clipPath>
</defs>
</svg>
