<svg width="60" height="61" viewBox="0 0 60 61" fill="none" xmlns="http://www.w3.org/2000/svg">
<path d="M57.4954 58.7401C57.9794 58.7401 58.4373 58.5086 58.7421 58.1092C59.0469 57.71 59.1657 57.1862 59.0657 56.6836L58.055 51.6048C58.6306 51.0136 58.9925 50.1881 58.9925 49.2702C58.9925 48.3039 58.5872 47.4469 57.9581 46.8515V29.2148L53.9064 31.8771V46.8515C53.2773 47.4469 52.8719 48.3039 52.8719 49.2702C52.8719 50.1882 53.2339 51.0137 53.8095 51.6048L52.7986 56.6836C52.6986 57.1863 52.8176 57.7101 53.1223 58.1092C53.4271 58.5084 53.885 58.7401 54.369 58.7401H57.4954ZM58.8687 18.9231L32.5105 1.59819C31.7386 1.0933 30.8684 0.839844 29.9982 0.839844C29.1279 0.839844 28.2571 1.09308 27.4899 1.59819L1.1313 18.9231C0.42747 19.3856 0 20.2023 0 21.0813C0 21.9605 0.42747 22.7775 1.1313 23.2407L27.4897 40.5658C28.257 41.0712 29.1278 41.3241 29.998 41.3241C30.8682 41.3241 31.7386 41.0709 32.5104 40.5658L58.8687 23.2407C59.5725 22.7777 60 21.9605 60 21.0813C60 20.2023 59.5725 19.3853 58.8687 18.9231ZM29.998 45.6259C28.3561 45.6259 26.7536 45.1417 25.3568 44.2238L9.98181 34.1171V51.5198C9.98181 56.6705 18.9476 60.8398 29.998 60.8398C41.0524 60.8398 50.0174 56.6703 50.0174 51.5198V34.1171L34.6431 44.2238C33.2462 45.1417 31.6399 45.6259 29.998 45.6259Z" fill="#0171DD"/>
</svg>
