<svg width="24" height="25" viewBox="0 0 24 25" fill="none" xmlns="http://www.w3.org/2000/svg">
<path d="M12 0.0166016C5.3723 0.0166016 0 5.3889 0 12.0166C0 18.6443 5.3723 24.0166 12 24.0166C18.6277 24.0166 24 18.6443 24 12.0166C24 5.3889 18.6277 0.0166016 12 0.0166016ZM12 22.1416C6.40795 22.1416 1.875 17.6086 1.875 12.0166C1.875 6.42455 6.40795 1.8916 12 1.8916C17.592 1.8916 22.125 6.42455 22.125 12.0166C22.125 17.6086 17.592 22.1416 12 22.1416Z" fill="#009220"/>
<path d="M9 15.7666L16.5 12.0166L9 8.2666V15.7666Z" fill="#009220"/>
</svg>
