<svg width="33" height="21" viewBox="0 0 33 21" fill="none" xmlns="http://www.w3.org/2000/svg">
<path d="M0 9.99937C0.044 10.0847 0.099 10.202 0.165 10.3513C0.231 10.5006 0.396 10.8099 0.66 11.2792C0.924 11.7485 1.21 12.1964 1.518 12.6231C1.826 13.0497 2.255 13.5616 2.805 14.1589C3.355 14.7561 3.927 15.3214 4.521 15.8547C5.115 16.3879 5.852 16.9105 6.732 17.4225C7.612 17.9344 8.514 18.3823 9.438 18.7663C10.362 19.1502 11.44 19.4489 12.672 19.6622C13.904 19.8755 15.18 19.9928 16.5 20.0141C17.82 20.0355 19.096 19.9181 20.328 19.6622C21.56 19.4062 22.649 19.0969 23.595 18.7343C24.541 18.3717 25.432 17.9344 26.268 17.4225C27.104 16.9105 27.841 16.3773 28.479 15.8227C29.117 15.2681 29.689 14.7241 30.195 14.1909C30.701 13.6576 31.13 13.1243 31.482 12.5911C31.834 12.0578 32.12 11.6205 32.34 11.2792C32.56 10.9379 32.725 10.6286 32.835 10.3513L33 9.99937C32.978 9.91405 32.923 9.79673 32.835 9.64742C32.747 9.4981 32.582 9.19947 32.34 8.75153C32.098 8.30358 31.812 7.85564 31.482 7.40769C31.152 6.95975 30.723 6.43714 30.195 5.83989C29.667 5.24263 29.095 4.68803 28.479 4.17609C27.863 3.66415 27.126 3.14155 26.268 2.60828C25.41 2.07501 24.508 1.62707 23.562 1.26445C22.616 0.901826 21.538 0.603196 20.328 0.368558C19.118 0.133921 17.842 0.0166016 16.5 0.0166016C15.158 0.0166016 13.882 0.133921 12.672 0.368558C11.462 0.603196 10.373 0.901826 9.405 1.26445C8.437 1.62707 7.546 2.07501 6.732 2.60828C5.918 3.14155 5.181 3.66415 4.521 4.17609C3.861 4.68803 3.289 5.24263 2.805 5.83989C2.321 6.43714 1.892 6.95975 1.518 7.40769C1.144 7.85564 0.858 8.30358 0.66 8.75153C0.462 9.19947 0.297 9.50877 0.165 9.67941L0 9.99937ZM10.329 9.99937C10.329 8.35691 10.923 6.94908 12.111 5.77589C13.299 4.6027 14.762 4.01611 16.5 4.01611C18.238 4.01611 19.701 4.6027 20.889 5.77589C22.077 6.94908 22.682 8.35691 22.704 9.99937C22.726 11.6418 22.121 13.0603 20.889 14.2548C19.657 15.4494 18.194 16.036 16.5 16.0146C14.806 15.9933 13.343 15.4067 12.111 14.2548C10.879 13.103 10.285 11.6845 10.329 9.99937ZM12.375 9.99937C12.375 11.1086 12.782 12.0578 13.596 12.847C14.41 13.6363 15.378 14.0202 16.5 13.9989C17.622 13.9775 18.59 13.5936 19.404 12.847C20.218 12.1004 20.625 11.1512 20.625 9.99937C20.625 8.84752 20.218 7.90896 19.404 7.18372C18.59 6.45848 17.622 6.06386 16.5 5.99987C15.378 5.93587 14.41 6.33049 13.596 7.18372L16.5 9.99937H12.375Z" fill="#FF0000"/>
</svg>
